{"accessors":[{"bufferView":0,"byteOffset":0,"componentType":5126,"count":2947,"max":[6.202479,2.185481,4.130861],"min":[-6.202479,-0.843187,-4.630529],"normalized":false,"type":"VEC3"},{"bufferView":1,"byteOffset":0,"componentType":5126,"count":2947,"max":[0.999969,0,-0.007936,1],"min":[0.999969,0,-0.007936,-1],"normalized":false,"type":"VEC4"},{"bufferView":2,"byteOffset":0,"componentType":5126,"count":2947,"max":[1,1,1],"min":[-1,-1,-1],"normalized":false,"type":"VEC3"},{"bufferView":3,"byteOffset":0,"componentType":5126,"count":2947,"max":[0,1],"min":[0,1],"normalized":false,"type":"VEC2"},{"bufferView":4,"byteOffset":0,"componentType":5125,"count":5814,"max":[2946],"min":[0],"normalized":false,"type":"SCALAR"},{"bufferView":5,"byteOffset":0,"componentType":5126,"count":2448,"max":[6.202479,2.185481,4.130861],"min":[-6.202479,-0.389723,-4.630529],"normalized":false,"type":"VEC3"},{"bufferView":6,"byteOffset":0,"componentType":5126,"count":2448,"max":[0.999969,0,-0.007936,1],"min":[0.999969,0,-0.007936,-1],"normalized":false,"type":"VEC4"},{"bufferView":7,"byteOffset":0,"componentType":5126,"count":2448,"max":[1,1,1],"min":[-1,-1,-1],"normalized":false,"type":"VEC3"},{"bufferView":8,"byteOffset":0,"componentType":5126,"count":2448,"max":[0,1],"min":[0,1],"normalized":false,"type":"VEC2"},{"bufferView":9,"byteOffset":0,"componentType":5125,"count":5664,"max":[2447],"min":[0],"normalized":false,"type":"SCALAR"},{"bufferView":10,"byteOffset":0,"componentType":5126,"count":8,"max":[1.455365,1.945589,-0.022955],"min":[-1.455365,1.945589,-0.219941],"normalized":false,"type":"VEC3"},{"bufferView":11,"byteOffset":0,"componentType":5126,"count":8,"max":[0.999969,0,-0.007936,1],"min":[0.999969,0,-0.007936,1],"normalized":false,"type":"VEC4"},{"bufferView":12,"byteOffset":0,"componentType":5126,"count":8,"max":[0,1,0],"min":[0,1,0],"normalized":false,"type":"VEC3"},{"bufferView":13,"byteOffset":0,"componentType":5126,"count":8,"max":[0,1],"min":[0,1],"normalized":false,"type":"VEC2"},{"bufferView":14,"byteOffset":0,"componentType":5125,"count":12,"max":[7],"min":[0],"normalized":false,"type":"SCALAR"},{"bufferView":15,"byteOffset":0,"componentType":5126,"count":102,"max":[1.564584,1.662234,0.786908],"min":[-1.564584,0.366132,-2.828995],"normalized":false,"type":"VEC3"},{"bufferView":16,"byteOffset":0,"componentType":5126,"count":102,"max":[0.999969,0,-0.007936,1],"min":[0.999969,0,-0.007936,-1],"normalized":false,"type":"VEC4"},{"bufferView":17,"byteOffset":0,"componentType":5126,"count":102,"max":[0.923334,0.923334,1],"min":[-0.923334,-0.923334,-0.531949],"normalized":false,"type":"VEC3"},{"bufferView":18,"byteOffset":0,"componentType":5126,"count":102,"max":[0,1],"min":[0,1],"normalized":false,"type":"VEC2"},{"bufferView":19,"byteOffset":0,"componentType":5125,"count":186,"max":[101],"min":[0],"normalized":false,"type":"SCALAR"},{"bufferView":20,"byteOffset":0,"componentType":5126,"count":7968,"max":[1.729627,2.511175,1.583236],"min":[-1.729627,-0.784945,-2.090637],"normalized":false,"type":"VEC3"},{"bufferView":21,"byteOffset":0,"componentType":5126,"count":7968,"max":[0.999969,0,-0.007936,1],"min":[0.999969,0,-0.007936,-1],"normalized":false,"type":"VEC4"},{"bufferView":22,"byteOffset":0,"componentType":5126,"count":7968,"max":[1,1,1],"min":[-1,-1,-1],"normalized":false,"type":"VEC3"},{"bufferView":23,"byteOffset":0,"componentType":5126,"count":7968,"max":[0,1],"min":[0,1],"normalized":false,"type":"VEC2"},{"bufferView":24,"byteOffset":0,"componentType":5125,"count":13224,"max":[7967],"min":[0],"normalized":false,"type":"SCALAR"},{"bufferView":25,"byteOffset":0,"componentType":5126,"count":58,"max":[0.743046,1.628955,2.884424],"min":[-0.743046,0.663162,-0.801972],"normalized":false,"type":"VEC3"},{"bufferView":26,"byteOffset":0,"componentType":5126,"count":58,"max":[0.999969,0,-0.007936,1],"min":[0.999969,0,-0.007936,-1],"normalized":false,"type":"VEC4"},{"bufferView":27,"byteOffset":0,"componentType":5126,"count":58,"max":[0.912459,0.658836,0.951615],"min":[-0.912459,0.282483,-0.958897],"normalized":false,"type":"VEC3"},{"bufferView":28,"byteOffset":0,"componentType":5126,"count":58,"max":[0,1],"min":[0,1],"normalized":false,"type":"VEC2"},{"bufferView":29,"byteOffset":0,"componentType":5125,"count":126,"max":[57],"min":[0],"normalized":false,"type":"SCALAR"},{"bufferView":30,"byteOffset":0,"componentType":5126,"count":8,"max":[0.175712,-0.326627,0.831525],"min":[-0.175712,-0.67805,0.831525],"normalized":false,"type":"VEC3"},{"bufferView":31,"byteOffset":0,"componentType":5126,"count":8,"max":[0.918012,-0.396414,-0.010432,1],"min":[0.918012,-0.396414,-0.010432,1],"normalized":false,"type":"VEC4"},{"bufferView":32,"byteOffset":0,"componentType":5126,"count":8,"max":[0,0,1],"min":[0,0,1],"normalized":false,"type":"VEC3"},{"bufferView":33,"byteOffset":0,"componentType":5126,"count":8,"max":[0.999512,0.999512],"min":[0.0001,0.0001],"normalized":false,"type":"VEC2"},{"bufferView":34,"byteOffset":0,"componentType":5125,"count":18,"max":[7],"min":[0],"normalized":false,"type":"SCALAR"}],"asset":{"generator":"Godot Engine v3.4.4.stable.official@419e713a29f20bd3351a54d1e6c4c5af7ef4b253","version":"2.0"},"bufferViews":[{"buffer":0,"byteLength":35364,"byteOffset":0},{"buffer":0,"byteLength":47152,"byteOffset":35364},{"buffer":0,"byteLength":35364,"byteOffset":82516},{"buffer":0,"byteLength":23576,"byteOffset":117880},{"buffer":0,"byteLength":23256,"byteOffset":141456},{"buffer":0,"byteLength":29376,"byteOffset":164712},{"buffer":0,"byteLength":39168,"byteOffset":194088},{"buffer":0,"byteLength":29376,"byteOffset":233256},{"buffer":0,"byteLength":19584,"byteOffset":262632},{"buffer":0,"byteLength":22656,"byteOffset":282216},{"buffer":0,"byteLength":96,"byteOffset":304872},{"buffer":0,"byteLength":128,"byteOffset":304968},{"buffer":0,"byteLength":96,"byteOffset":305096},{"buffer":0,"byteLength":64,"byteOffset":305192},{"buffer":0,"byteLength":48,"byteOffset":305256},{"buffer":0,"byteLength":1224,"byteOffset":305304},{"buffer":0,"byteLength":1632,"byteOffset":306528},{"buffer":0,"byteLength":1224,"byteOffset":308160},{"buffer":0,"byteLength":816,"byteOffset":309384},{"buffer":0,"byteLength":744,"byteOffset":310200},{"buffer":0,"byteLength":95616,"byteOffset":310944},{"buffer":0,"byteLength":127488,"byteOffset":406560},{"buffer":0,"byteLength":95616,"byteOffset":534048},{"buffer":0,"byteLength":63744,"byteOffset":629664},{"buffer":0,"byteLength":52896,"byteOffset":693408},{"buffer":0,"byteLength":696,"byteOffset":746304},{"buffer":0,"byteLength":928,"byteOffset":747000},{"buffer":0,"byteLength":696,"byteOffset":747928},{"buffer":0,"byteLength":464,"byteOffset":748624},{"buffer":0,"byteLength":504,"byteOffset":749088},{"buffer":0,"byteLength":96,"byteOffset":749592},{"buffer":0,"byteLength":128,"byteOffset":749688},{"buffer":0,"byteLength":96,"byteOffset":749816},{"buffer":0,"byteLength":64,"byteOffset":749912},{"buffer":0,"byteLength":72,"byteOffset":749976}],"buffers":[{"byteLength":750048,"uri":"Drone0.bin"}],"extensionsRequired":["KHR_texture_transform"],"extensionsUsed":["KHR_lights_punctual","KHR_texture_transform"],"materials":[{"name":"col_1","pbrMetallicRoughness":{"baseColorFactor":[0.001167,0.001167,0.001167,1],"metallicFactor":0.2,"roughnessFactor":1}}],"meshes":[{"extras":{"targetNames":[]},"primitives":[{"attributes":{"NORMAL":2,"POSITION":0,"TANGENT":1,"TEXCOORD_0":3},"indices":4,"mode":4},{"attributes":{"NORMAL":7,"POSITION":5,"TANGENT":6,"TEXCOORD_0":8},"indices":9,"material":0,"mode":4},{"attributes":{"NORMAL":12,"POSITION":10,"TANGENT":11,"TEXCOORD_0":13},"indices":14,"material":0,"mode":4},{"attributes":{"NORMAL":17,"POSITION":15,"TANGENT":16,"TEXCOORD_0":18},"indices":19,"material":0,"mode":4},{"attributes":{"NORMAL":22,"POSITION":20,"TANGENT":21,"TEXCOORD_0":23},"indices":24,"material":0,"mode":4},{"attributes":{"NORMAL":27,"POSITION":25,"TANGENT":26,"TEXCOORD_0":28},"indices":29,"material":0,"mode":4},{"attributes":{"NORMAL":32,"POSITION":30,"TANGENT":31,"TEXCOORD_0":33},"indices":34,"material":0,"mode":4}]}],"nodes":[{"children":[1,2,3],"extensions":{},"name":"Drone"},{"extensions":{},"name":"CollisionShape","scale":[0.3,0.3,0.3],"translation":[0,0.680757,0]},{"extensions":{},"mesh":0,"name":"MeshInstance","scale":[0.3,0.3,0.3],"translation":[0,0.438744,0]},{"extensions":{},"name":"AnimationPlayer"}],"scene":0,"scenes":[{"nodes":[0]}]}